<?xml version="1.0" encoding="UTF-8"?> <!-- Generator: Adobe Illustrator 16.0.3, SVG Export Plug-In . SVG Version: 6.00 Build 0) --> <svg xmlns="http://www.w3.org/2000/svg" xmlns:xlink="http://www.w3.org/1999/xlink" version="1.1" id="Capa_1" x="0px" y="0px" width="150px" height="51px" viewBox="0 0 150 51" xml:space="preserve"> <title>NEP logo</title> <path fill="#BC050E" d="M7.558,13.31V0h17.386l20.94,23.958v13.861H28.541L7.558,13.31z M7.558,37.818V18.322L24.2,37.818H7.558z M45.879,19.209L29.209,0h16.67V19.209z"></path> <path fill="#BC050E" d="M51.107,37.818V0h39.69v14.245l-3.793-2.854v14.102l3.887-3.142v15.468H51.107z M86.911,25.587 l-14.029-6.423v17.862L86.911,25.587z M86.865,11.247L72.978,0.842v17.863L86.865,11.247z"></path> <path fill="#BC050E" d="M114.664,20.281c-2.584,2.902-5.233,5.75-7.947,8.542c-2.724,2.78-5.501,5.511-8.457,8.084 c2.215-3.236,4.609-6.307,7.059-9.338c2.449-3.031,4.982-5.975,7.568-8.876c1.446-1.62,2.911-3.223,4.396-4.808 c-1.239-0.033-2.477-0.091-3.713-0.174c-2.155-0.132-4.302-0.391-6.427-0.777c2.125-0.386,4.271-0.645,6.427-0.777 c1.306-0.09,2.618-0.146,3.919-0.179c-1.07-1.265-2.121-2.544-3.133-3.857c-1.424-1.827-2.745-3.732-3.957-5.707 c1.796,1.465,3.51,3.029,5.131,4.684c0.814,0.827,1.607,1.653,2.389,2.503V0H96.289v37.818h21.629V16.547 C116.844,17.801,115.76,19.045,114.664,20.281z"></path> <path fill="#BC050E" d="M140.652,6.523c-1.275-2.06-3.104-3.722-5.274-4.797c-2.271-1.15-4.821-1.725-7.65-1.726h-6.62v9.888 c2.639-2.685,5.329-5.326,8.191-7.806c-2.219,3.229-4.614,6.302-7.063,9.327c-0.152,0.187-0.309,0.373-0.461,0.561 c1.551,0.026,3.102,0.091,4.652,0.196c2.155,0.131,4.301,0.392,6.426,0.779c-2.125,0.388-4.271,0.648-6.426,0.78 c-1.563,0.105-3.126,0.171-4.693,0.197c0.984,1.171,1.953,2.354,2.887,3.569c1.423,1.828,2.744,3.732,3.959,5.705 c-1.795-1.466-3.508-3.03-5.131-4.684c-0.795-0.802-1.57-1.623-2.342-2.451v10.47h7.459c1.859,0.008,3.705-0.326,5.443-0.984 c1.65-0.637,3.17-1.571,4.484-2.755c1.283-1.182,2.305-2.62,2.999-4.221c0.694-1.616,1.045-3.359,1.03-5.118 C142.523,10.863,141.9,8.553,140.652,6.523z"></path> <path fill="#124866" d="M8.548,45.428v5.486H7.476v-7.576H8.97l1.223,4.535v-4.535h1.061v7.576H10.03L8.548,45.428z"></path> <path fill="#124866" d="M14.825,45.156c0-1.213,0.638-1.904,1.808-1.904c1.169,0,1.808,0.689,1.808,1.904v3.939 c0,1.213-0.64,1.904-1.808,1.904c-1.168,0-1.808-0.689-1.808-1.904V45.156z M16.015,49.172c0,0.541,0.238,0.746,0.617,0.746 s0.617-0.205,0.617-0.746V45.08c0-0.541-0.238-0.746-0.617-0.746s-0.617,0.205-0.617,0.746V49.172z"></path> <path fill="#124866" d="M24.51,50.914c-0.065-0.195-0.107-0.313-0.107-0.931v-1.19c0-0.704-0.238-0.965-0.78-0.965h-0.414v3.085 h-1.19v-7.577h1.791c1.233,0,1.763,0.574,1.763,1.742v0.596c0,0.779-0.248,1.288-0.778,1.537c0.595,0.25,0.79,0.827,0.79,1.612v1.17 c-0.021,0.312,0.022,0.626,0.129,0.92L24.51,50.914z M23.217,44.42v2.327h0.466c0.444,0,0.714-0.194,0.714-0.8v-0.744 c0-0.542-0.184-0.78-0.606-0.78L23.217,44.42z"></path> <path fill="#124866" d="M28.838,43.338h3.68v1.082h-1.24v6.494h-1.19V44.42h-1.24L28.838,43.338z"></path> <path fill="#124866" d="M37.042,50.914h-1.19v-7.576h1.19v3.242h1.353v-3.242h1.216v7.576h-1.212v-3.246h-1.353L37.042,50.914z"></path> <path fill="#124866" d="M44.477,46.531h1.634v1.082h-1.634v2.219h2.057v1.082h-3.247v-7.576h3.247v1.082h-2.057V46.531z"></path> <path fill="#124866" d="M52.571,50.914c-0.064-0.195-0.108-0.313-0.108-0.931v-1.19c0-0.704-0.237-0.965-0.779-0.965h-0.413v3.085 h-1.189v-7.577h1.791c1.24,0,1.765,0.574,1.765,1.742v0.596c0,0.779-0.249,1.288-0.78,1.537c0.595,0.25,0.791,0.827,0.791,1.612 v1.17c0,0.368,0.01,0.638,0.129,0.92L52.571,50.914z M51.272,44.42v2.327h0.463c0.443,0,0.715-0.194,0.715-0.8v-0.744 c0-0.542-0.185-0.78-0.606-0.78L51.272,44.42z"></path> <path fill="#124866" d="M58.307,45.428v5.486h-1.072v-7.576h1.495l1.222,4.535v-4.535h1.061v7.576h-1.224L58.307,45.428z"></path> <path fill="#124866" d="M70.363,46.531h1.634v1.082h-1.634v2.219h2.056v1.082h-3.246v-7.576h3.246v1.082h-2.056V46.531z"></path> <path fill="#124866" d="M75.969,43.338h1.189v6.494h1.959v1.082h-3.148V43.338z"></path> <path fill="#124866" d="M83.641,46.531h1.635v1.082h-1.635v2.219h2.057v1.082h-3.24v-7.576h3.248v1.082h-2.064V46.531z"></path> <path fill="#124866" d="M92.699,48.096v1.008c0,1.212-0.606,1.903-1.775,1.903c-1.168,0-1.775-0.688-1.775-1.903v-3.941 c0-1.212,0.606-1.903,1.775-1.903c1.17,0,1.775,0.688,1.775,1.903v0.729h-1.126V45.08c0-0.541-0.238-0.746-0.617-0.746 s-0.617,0.205-0.617,0.746v4.092c0,0.541,0.238,0.736,0.617,0.736s0.617-0.195,0.617-0.736v-1.076H92.699z"></path> <path fill="#124866" d="M95.891,43.338h3.68v1.082h-1.239v6.494h-1.192V44.42h-1.239L95.891,43.338z"></path> <path fill="#124866" d="M105.393,50.914c-0.064-0.195-0.108-0.313-0.108-0.931v-1.19c0-0.704-0.237-0.965-0.778-0.965h-0.414v3.085 h-1.189v-7.577h1.791c1.239,0,1.764,0.574,1.764,1.742v0.596c0,0.779-0.248,1.288-0.779,1.537c0.596,0.25,0.791,0.827,0.791,1.612 v1.17c-0.021,0.312,0.022,0.626,0.129,0.92L105.393,50.914z M104.094,44.42v2.327h0.465c0.444,0,0.716-0.194,0.716-0.8v-0.744 c0-0.542-0.185-0.78-0.606-0.78L104.094,44.42z"></path> <path fill="#124866" d="M110.067,43.338h1.19v7.576h-1.19V43.338z"></path> <path fill="#124866" d="M118.39,48.096v1.008c0,1.212-0.606,1.903-1.774,1.903s-1.775-0.688-1.775-1.903v-3.941 c0-1.212,0.605-1.903,1.775-1.903s1.774,0.688,1.774,1.903v0.729h-1.126V45.08c0-0.541-0.238-0.746-0.617-0.746 s-0.615,0.205-0.615,0.746v4.092c0,0.541,0.236,0.736,0.615,0.736s0.617-0.195,0.617-0.736v-1.076H118.39z"></path> </svg> 