<svg width="139" height="62" viewBox="0 0 139 62" fill="none" xmlns="http://www.w3.org/2000/svg">
<path d="M38.2747 16.7949V19.6324H4.79252V33.4955H7.62999V22.4699H10.6296V33.4955H13.3049V22.4699H16.1424V36.3329H2.11719V16.7949H38.2747Z" fill="white"/>
<path fill-rule="evenodd" clip-rule="evenodd" d="M27.2477 33.5774V36.4149H18.8164V22.3086H27.2477V30.7399H21.816V33.5774H27.2477ZM24.5719 25.0645H21.6533V27.983H24.5719V25.0645Z" fill="white"/>
<path fill-rule="evenodd" clip-rule="evenodd" d="M35.6775 36.1717H29.9215V22.3086H38.1096V41.7655H2.19531V39.0091H35.6775V36.1717ZM35.5977 25.0645H32.8413V33.3337H35.5977V25.0645Z" fill="white"/>
<path d="M49.323 30.9119C49.323 31.3366 49.398 31.6992 49.548 31.9996C49.6979 32.3 49.9068 32.5486 50.1746 32.7454C50.4424 32.9318 50.7477 33.0716 51.0905 33.1649C51.444 33.2477 51.8243 33.2892 52.2314 33.2892C52.6706 33.2892 53.0455 33.2426 53.3562 33.1493C53.6669 33.0458 53.9186 32.9163 54.1114 32.7609C54.3042 32.6055 54.4435 32.4294 54.5292 32.2326C54.6149 32.0255 54.6577 31.8183 54.6577 31.6111C54.6577 31.1864 54.556 30.8757 54.3524 30.6789C54.1596 30.4717 53.9454 30.3267 53.7097 30.2438C53.3026 30.0988 52.8259 29.9642 52.2796 29.8399C51.744 29.7052 51.0798 29.5343 50.2871 29.3271C49.7944 29.2028 49.3819 29.0423 49.0498 28.8455C48.7285 28.6383 48.4714 28.4104 48.2786 28.1618C48.0857 27.9132 47.9465 27.6491 47.8608 27.3694C47.7858 27.0897 47.7483 26.8049 47.7483 26.5148C47.7483 25.9555 47.8661 25.4738 48.1018 25.0698C48.3482 24.6555 48.6696 24.3137 49.0659 24.0444C49.4623 23.775 49.9122 23.5782 50.4157 23.4539C50.9191 23.3193 51.428 23.252 51.9422 23.252C52.5421 23.252 53.1045 23.3296 53.6294 23.485C54.165 23.63 54.631 23.8527 55.0273 24.1531C55.4344 24.4535 55.7558 24.8264 55.9914 25.2718C56.2271 25.7069 56.3449 26.2144 56.3449 26.7945H54.3364C54.2828 26.0798 54.0311 25.5774 53.5812 25.2874C53.1312 24.987 52.5581 24.8368 51.8618 24.8368C51.6262 24.8368 51.3851 24.8627 51.1388 24.9145C50.8924 24.9559 50.6674 25.0336 50.4639 25.1475C50.2603 25.2511 50.0889 25.3961 49.9497 25.5826C49.8211 25.769 49.7569 26.0021 49.7569 26.2818C49.7569 26.6754 49.8801 26.9861 50.1264 27.214C50.3835 27.4315 50.7156 27.5973 51.1227 27.7112C51.1655 27.7216 51.3316 27.7682 51.6208 27.8511C51.9207 27.9236 52.2528 28.0064 52.617 28.0997C52.9813 28.1929 53.3348 28.2861 53.6776 28.3793C54.0311 28.4622 54.2828 28.5243 54.4328 28.5658C54.8077 28.6797 55.1344 28.8351 55.413 29.0319C55.6915 29.2287 55.9218 29.4566 56.1039 29.7156C56.2967 29.9642 56.436 30.2335 56.5217 30.5235C56.6181 30.8135 56.6663 31.1036 56.6663 31.3936C56.6663 32.0151 56.5324 32.5486 56.2646 32.994C56.0075 33.429 55.6647 33.7864 55.2362 34.066C54.8077 34.3457 54.3203 34.5477 53.774 34.672C53.2277 34.8067 52.6706 34.874 52.1029 34.874C51.4494 34.874 50.8334 34.7963 50.255 34.6409C49.6765 34.4856 49.173 34.2473 48.7445 33.9262C48.3161 33.6051 47.9733 33.196 47.7162 32.6988C47.4591 32.1912 47.3252 31.5956 47.3145 30.9119H49.323Z" fill="white"/>
<path d="M64.3541 24.8368C63.7435 24.8368 63.2132 24.9559 62.7633 25.1941C62.3241 25.4324 61.9652 25.7535 61.6867 26.1575C61.4082 26.5511 61.1993 27.0017 61.06 27.5092C60.9315 28.0168 60.8672 28.5347 60.8672 29.063C60.8672 29.5913 60.9315 30.1092 61.06 30.6167C61.1993 31.1243 61.4082 31.5801 61.6867 31.984C61.9652 32.3776 62.3241 32.6936 62.7633 32.9318C63.2132 33.1701 63.7435 33.2892 64.3541 33.2892C64.9647 33.2892 65.4896 33.1701 65.9288 32.9318C66.3787 32.6936 66.7429 32.3776 67.0214 31.984C67.2999 31.5801 67.5035 31.1243 67.632 30.6167C67.7713 30.1092 67.8409 29.5913 67.8409 29.063C67.8409 28.5347 67.7713 28.0168 67.632 27.5092C67.5035 27.0017 67.2999 26.5511 67.0214 26.1575C66.7429 25.7535 66.3787 25.4324 65.9288 25.1941C65.4896 24.9559 64.9647 24.8368 64.3541 24.8368ZM64.3541 23.252C65.211 23.252 65.977 23.4073 66.6519 23.7181C67.3374 24.0288 67.9159 24.4483 68.3872 24.9766C68.8586 25.5049 69.2175 26.1212 69.4638 26.8256C69.7209 27.5299 69.8495 28.2757 69.8495 29.063C69.8495 29.8606 69.7209 30.6115 69.4638 31.3159C69.2175 32.0203 68.8586 32.6366 68.3872 33.1649C67.9159 33.6931 67.3374 34.1127 66.6519 34.4234C65.977 34.7238 65.211 34.874 64.3541 34.874C63.4971 34.874 62.7258 34.7238 62.0402 34.4234C61.3653 34.1127 60.7922 33.6931 60.3209 33.1649C59.8495 32.6366 59.4853 32.0203 59.2282 31.3159C58.9818 30.6115 58.8586 29.8606 58.8586 29.063C58.8586 28.2757 58.9818 27.5299 59.2282 26.8256C59.4853 26.1212 59.8495 25.5049 60.3209 24.9766C60.7922 24.4483 61.3653 24.0288 62.0402 23.7181C62.7258 23.4073 63.4971 23.252 64.3541 23.252Z" fill="white"/>
<path d="M72.6416 23.5161H74.6502V32.9318H80.483V34.6099H72.6416V23.5161Z" fill="white"/>
<path d="M86.8657 23.5161H89.0028L93.4217 34.6099H91.2685L90.1919 31.6733H85.6124L84.5358 34.6099H82.463L86.8657 23.5161ZM86.1587 30.1972H89.6617L87.9423 25.4272H87.8941L86.1587 30.1972Z" fill="white"/>
<path d="M95.7193 23.5161H101.199C102.463 23.5161 103.411 23.7802 104.043 24.3085C104.675 24.8368 104.991 25.5722 104.991 26.5148C104.991 27.0431 104.911 27.4833 104.75 27.8355C104.589 28.1773 104.402 28.457 104.187 28.6745C103.973 28.8817 103.759 29.0319 103.545 29.1251C103.341 29.2184 103.191 29.2805 103.095 29.3116V29.3427C103.266 29.3634 103.448 29.4152 103.641 29.498C103.845 29.5809 104.032 29.7156 104.203 29.902C104.375 30.0781 104.514 30.3112 104.621 30.6012C104.739 30.8912 104.798 31.2538 104.798 31.6888C104.798 32.3414 104.846 32.937 104.943 33.4756C105.05 34.0039 105.21 34.382 105.425 34.6099H103.272C103.122 34.3716 103.03 34.1075 102.998 33.8174C102.977 33.5274 102.966 33.2477 102.966 32.9784C102.966 32.4709 102.934 32.0358 102.87 31.6733C102.806 31.3004 102.688 30.9948 102.516 30.7566C102.345 30.508 102.109 30.3267 101.809 30.2128C101.52 30.0988 101.145 30.0418 100.684 30.0418H97.7279V34.6099H95.7193V23.5161ZM97.7279 28.5658H101.022C101.665 28.5658 102.152 28.4208 102.484 28.1307C102.816 27.8303 102.982 27.3849 102.982 26.7945C102.982 26.4423 102.929 26.1575 102.822 25.9399C102.714 25.7121 102.565 25.536 102.372 25.4117C102.19 25.2874 101.975 25.2045 101.729 25.1631C101.493 25.1216 101.247 25.1009 100.99 25.1009H97.7279V28.5658Z" fill="white"/>
</svg>
